<?xml version="1.0" encoding="utf-8"?>
<!-- Svg Vector Icons : http://www.sfont.cn -->
<!DOCTYPE svg PUBLIC "-//W3C//DTD SVG 1.1//EN" "http://www.w3.org/Graphics/SVG/1.1/DTD/svg11.dtd">
<svg version="1.1" xmlns="http://www.w3.org/2000/svg" xmlns:xlink="http://www.w3.org/1999/xlink" x="0px" y="0px" viewBox="0 0 1000 1000" enable-background="new 0 0 1000 1000" xml:space="preserve">
<metadata> Svg Vector Icons : http://www.sfont.cn </metadata>
<g><path d="M497.1,992.5c-125.9,0-251.8,0.1-377.7,0c-75.8-0.1-109.1-33.3-109.2-108.9c0-25.9-0.3-51.9,0.1-77.8c0.9-56.3,33.8-91.3,89.9-96.2c5.7-0.5,11.5-0.6,17.3-0.6c254.7,0,509.3-0.1,764,0.2c16.1,0,33.4,0.7,48.2,6.3c37.9,14.2,57.6,43.7,59.1,84c1.1,31.7,1.1,63.4,0.3,95.1c-1.4,62.8-36.6,97.6-99.9,97.8C758.5,992.8,627.8,992.5,497.1,992.5z"/><path d="M500.8,636.8c-128.7,0-257.5,0.2-386.2,0c-70.1-0.1-104-34.3-104.4-104.5c-0.1-26.9-0.5-53.8,0.1-80.7c1.3-53.8,37.1-91.6,90.5-91.7c266.1-0.7,532.2-0.6,798.4,0c49.9,0.1,85.3,33.8,88.8,83.9c2.5,35.4,2.4,71.1,0.3,106.5c-3.2,52.9-39.4,86.1-92.7,86.3C764.1,637.1,632.4,636.7,500.8,636.8z"/><path d="M500.9,7.6c125.9,0,251.8-0.2,377.7,0c78.6,0.1,110.5,32,110.8,110.1c0.1,24,0.6,48.1-0.2,72.1c-2.1,59.2-37.9,94.6-97,94.7c-261.4,0.3-522.8,0.3-784.2,0c-60.3-0.1-96.7-36.8-97.6-96.9c-0.4-27.9-0.4-55.8,0-83.6c0.9-59.6,36.9-95.7,98.4-96C239.4,7.1,370.2,7.6,500.9,7.6z"/></g>
</svg>