<?xml version="1.0" encoding="utf-8"?>
<!-- Svg Vector Icons : http://www.sfont.cn -->
<!DOCTYPE svg PUBLIC "-//W3C//DTD SVG 1.1//EN" "http://www.w3.org/Graphics/SVG/1.1/DTD/svg11.dtd">
<svg version="1.1" xmlns="http://www.w3.org/2000/svg" xmlns:xlink="http://www.w3.org/1999/xlink" x="0px" y="0px" viewBox="0 0 1000 1000" enable-background="new 0 0 1000 1000" xml:space="preserve">
<metadata> Svg Vector Icons : http://www.sfont.cn </metadata>
<g><g transform="translate(0.000000,512.000000) scale(0.100000,-0.100000)"><path d="M1897.7,4993c-469-74.7-957.2-344.6-1261.6-698.8c-147.4-170.4-210.6-264.2-306.3-453.7c-306.3-612.6-306.3-1313.3,0-1925.9c202.9-403.9,522.6-729.4,917-932.3c409.7-210.6,624.1-248.9,1374.6-248.9h539.9V120.8v-612.6h-530.3c-582,0-790.7-21.1-1045.3-103.4c-166.6-55.5-421.2-178.1-547.5-266.1C356.5-1328.5,2.4-2145.9,126.8-2961.5c137.8-917,857.7-1640.7,1780.4-1790c1162.1-189.5,2274.4,622.2,2450.5,1790c19.1,124.4,28.7,348.4,28.7,714.1v530.3H4999h612.6V-2257c0-731.3,40.2-957.2,231.7-1342c202.9-404,522.6-729.4,918.9-932.3c649-333.1,1349.7-331.2,1992.9,3.8c1003.2,524.5,1426.3,1767,945.7,2783.6c-218.2,461.4-532.2,788.7-970.6,1010.8c-398.2,202.9-612.6,241.2-1349.7,241.2h-543.7v612.6v612.6h541.8c382.9,0,589.6,7.7,712.2,28.7c670.1,107.2,1244.4,520.7,1556.4,1116.1c337,643.3,337,1355.4,0,1998.7c-537.9,1030-1809.1,1437.7-2854.4,913.2c-404-202.9-729.4-522.6-932.3-918.9c-206.8-404-248.9-631.8-248.9-1380.3v-532.2H4999h-612.6v532.2c0,739-34.5,940-229.7,1334.4C3741.3,4673.3,2835.7,5140.4,1897.7,4993z M5611.6,120.8v-612.6H4999h-612.6v612.6v612.6H4999h612.6V120.8z"/></g></g>
</svg>