<?xml version="1.0" encoding="utf-8"?>
<!-- Svg Vector Icons : http://www.sfont.cn -->
<!DOCTYPE svg PUBLIC "-//W3C//DTD SVG 1.1//EN" "http://www.w3.org/Graphics/SVG/1.1/DTD/svg11.dtd">
<svg version="1.1" xmlns="http://www.w3.org/2000/svg" xmlns:xlink="http://www.w3.org/1999/xlink" x="0px" y="0px" viewBox="0 0 1000 1000" enable-background="new 0 0 1000 1000" xml:space="preserve">
<metadata> Svg Vector Icons : http://www.sfont.cn </metadata>
<g><path d="M408.2,661.7c-33.8,56.1-11,102.3,35.9,128.2c46.8,25.8,100,21.8,133.9-34.4c33.7-56.1,247.3-556.9,228.8-567.1C788.1,177.9,442,605.5,408.2,661.7z M500,304.8c21.4,0,42.3,1.8,62.7,5.1c21.5-25.8,45.5-54,68.9-81.1c-41.7-11.6-85.8-17.8-131.6-17.8C225.3,211.1,10,433,10,716.2c0,17.4,0.8,34.9,2.4,51.9c2.4,25.8,26.5,44.9,53.1,42.4c27-2.3,46.8-25,44.5-51c-1.3-14-2-28.6-2-43.3C108,485.5,280.2,304.8,500,304.8z M853.7,363.5c-13.5,35.1-28,71.1-40.9,102.1c49.9,69,79.2,155.5,79.2,250.6c0,14.9-0.7,29.9-1.9,44.4c-2.5,25.8,17.4,48.6,44.4,51c1.5,0.1,3,0.3,4.4,0.3c24.9,0,46.3-18.4,48.6-42.6c1.6-17.5,2.5-35.4,2.5-53.1C990,577.7,938.5,453.9,853.7,363.5z"/></g>
</svg>