<?xml version="1.0" encoding="utf-8"?>
<!-- Svg Vector Icons : http://www.sfont.cn -->
<!DOCTYPE svg PUBLIC "-//W3C//DTD SVG 1.1//EN" "http://www.w3.org/Graphics/SVG/1.1/DTD/svg11.dtd">
<svg version="1.1" xmlns="http://www.w3.org/2000/svg" xmlns:xlink="http://www.w3.org/1999/xlink" x="0px" y="0px" viewBox="0 0 1000 1000" enable-background="new 0 0 1000 1000" xml:space="preserve">
<metadata> Svg Vector Icons : http://www.sfont.cn </metadata>
<g><g transform="matrix(1 0 0 -1 0 960)"><path d="M91.7,664.2c-22.3,0-41.5,8-57.6,24.1C18,704.3,10,723.5,10,745.8v81.7c0,22.3,8,41.5,24.1,57.6c16.1,16.1,35.3,24.1,57.6,24.1h816.7c22.3,0,41.5-8,57.6-24.1s24.1-35.3,24.1-57.6v-81.7c0-22.3-8-41.5-24.1-57.6c-16.1-16.1-35.3-24.1-57.6-24.1H91.7z M745,745.8h163.3v81.7H745V745.8z M91.7,337.5c-22.3,0-41.5,8-57.6,24.1C18,377.7,10,396.8,10,419.2v81.7c0,22.3,8,41.5,24.1,57.6c16.1,16.1,35.3,24.1,57.6,24.1h816.7c22.3,0,41.5-8,57.6-24.1s24.1-35.3,24.1-57.6v-81.7c0-22.3-8-41.5-24.1-57.6c-16.1-16.1-35.3-24.1-57.6-24.1H91.7z M500,419.2h408.3v81.7H500V419.2z M91.7,10.8c-22.3,0-41.5,8-57.6,24.1C18,51,10,70.2,10,92.5v81.7c0,22.3,8,41.5,24.1,57.6c16.1,16.1,35.3,24.1,57.6,24.1h816.7c22.3,0,41.5-8,57.6-24.1s24.1-35.3,24.1-57.6V92.5c0-22.3-8-41.5-24.1-57.6c-16.1-16.1-35.3-24.1-57.6-24.1H91.7z M663.3,92.5h245v81.7h-245V92.5z"/></g></g>
</svg>