<?xml version="1.0" encoding="utf-8"?>
<!-- Svg Vector Icons : http://www.sfont.cn -->
<!DOCTYPE svg PUBLIC "-//W3C//DTD SVG 1.1//EN" "http://www.w3.org/Graphics/SVG/1.1/DTD/svg11.dtd">
<svg version="1.1" xmlns="http://www.w3.org/2000/svg" xmlns:xlink="http://www.w3.org/1999/xlink" x="0px" y="0px" viewBox="0 0 1000 1000" enable-background="new 0 0 1000 1000" xml:space="preserve">
<metadata> Svg Vector Icons : http://www.sfont.cn </metadata>
<g><path d="M907.5,59.2H694.4c-16.9,0-30.6,13.7-30.6,30.6v64c-5.1,7.1-22.3,18.5-43.6,29.6v-37.7C620.2,33.6,556,10,502.2,10H195.5C115.6,10,61.9,80.3,61.9,145.9V887c0,60.6,40.2,103,97.8,103h689.6c54.8,0,88.8-39.4,88.8-103V89.9C938.1,73,924.4,59.2,907.5,59.2z M171.2,192.9c0-34.4,28-62.3,62.3-62.3H397c34.4,0,62.3,28,62.3,62.3c0,34.4-28,62.3-62.3,62.3H233.6C199.2,255.2,171.2,227.2,171.2,192.9z M752.3,807.7c0,23.2-19,42.2-42.2,42.2H240.7c-18.7,0-34.5-11.5-40.1-29.3c-5.7-17.8,0.4-36.3,15.6-47.2l469.4-336.1c7.2-5.2,15.7-7.9,24.5-7.9c23.3,0,42.3,19,42.3,42.2L752.3,807.7L752.3,807.7z"/></g>
</svg>